<svg width="120" height="80" viewBox="0 0 120 80" fill="none" xmlns="http://www.w3.org/2000/svg">
  <defs>
    <linearGradient id="grad-trans" x1="0%" y1="0%" x2="100%" y2="100%">
      <stop offset="0%" style="stop-color:#fec748;stop-opacity:0.6" />
      <stop offset="100%" style="stop-color:#e0a430;stop-opacity:0.8" />
    </linearGradient>
    <filter id="glow-trans">
      <feGaussianBlur stdDeviation="3" result="coloredBlur"/>
      <feMerge>
        <feMergeNode in="coloredBlur"/>
        <feMergeNode in="SourceGraphic"/>
      </feMerge>
    </filter>
  </defs>
  
  <!-- Main cloud body -->
  <ellipse cx="60" cy="50" rx="36" ry="29" fill="url(#grad-trans)" opacity="0.3"/>
  <ellipse cx="42" cy="46" rx="29" ry="26" fill="url(#grad-trans)" opacity="0.4"/>
  <ellipse cx="78" cy="47" rx="26" ry="23" fill="url(#grad-trans)" opacity="0.4"/>
  <ellipse cx="60" cy="34" rx="31" ry="24" fill="url(#grad-trans)" opacity="0.5"/>
  
  <!-- Outline -->
  <path d="M 24 50 Q 19 44 23 38 Q 27 28 39 26 Q 49 18 64 20 Q 77 16 89 24 Q 100 28 104 39 Q 107 49 102 57 Q 96 64 86 67 Q 71 71 56 69 Q 39 71 29 63 Q 21 57 24 50 Z" 
        fill="none" 
        stroke="#fec748" 
        stroke-width="2" 
        opacity="0.6"
        filter="url(#glow-trans)"/>
</svg>

