<svg width="120" height="80" viewBox="0 0 120 80" fill="none" xmlns="http://www.w3.org/2000/svg">
  <defs>
    <linearGradient id="grad-web3" x1="0%" y1="0%" x2="100%" y2="100%">
      <stop offset="0%" style="stop-color:#e366f7;stop-opacity:0.6" />
      <stop offset="100%" style="stop-color:#a53cbd;stop-opacity:0.8" />
    </linearGradient>
    <filter id="glow-web3">
      <feGaussianBlur stdDeviation="3" result="coloredBlur"/>
      <feMerge>
        <feMergeNode in="coloredBlur"/>
        <feMergeNode in="SourceGraphic"/>
      </feMerge>
    </filter>
  </defs>
  
  <!-- Main cloud body -->
  <ellipse cx="60" cy="48" rx="38" ry="30" fill="url(#grad-web3)" opacity="0.3"/>
  <ellipse cx="38" cy="43" rx="30" ry="26" fill="url(#grad-web3)" opacity="0.4"/>
  <ellipse cx="82" cy="45" rx="28" ry="24" fill="url(#grad-web3)" opacity="0.4"/>
  <ellipse cx="60" cy="32" rx="32" ry="25" fill="url(#grad-web3)" opacity="0.5"/>
  
  <!-- Outline -->
  <path d="M 22 48 Q 18 42 22 36 Q 26 25 38 24 Q 48 15 63 18 Q 78 14 90 22 Q 102 26 106 37 Q 108 48 103 56 Q 98 64 87 67 Q 72 72 56 70 Q 38 72 28 63 Q 20 56 22 48 Z" 
        fill="none" 
        stroke="#e366f7" 
        stroke-width="2" 
        opacity="0.6"
        filter="url(#glow-web3)"/>
</svg>

