<svg width="120" height="80" viewBox="0 0 120 80" fill="none" xmlns="http://www.w3.org/2000/svg">
  <defs>
    <linearGradient id="grad-philosophy" x1="0%" y1="0%" x2="100%" y2="100%">
      <stop offset="0%" style="stop-color:#2eecb8;stop-opacity:0.6" />
      <stop offset="100%" style="stop-color:#1ba882;stop-opacity:0.8" />
    </linearGradient>
    <filter id="glow-philosophy">
      <feGaussianBlur stdDeviation="3" result="coloredBlur"/>
      <feMerge>
        <feMergeNode in="coloredBlur"/>
        <feMergeNode in="SourceGraphic"/>
      </feMerge>
    </filter>
  </defs>
  
  <!-- Main cloud body -->
  <ellipse cx="60" cy="50" rx="35" ry="28" fill="url(#grad-philosophy)" opacity="0.3"/>
  <ellipse cx="40" cy="45" rx="28" ry="25" fill="url(#grad-philosophy)" opacity="0.4"/>
  <ellipse cx="80" cy="48" rx="25" ry="22" fill="url(#grad-philosophy)" opacity="0.4"/>
  <ellipse cx="60" cy="35" rx="30" ry="23" fill="url(#grad-philosophy)" opacity="0.5"/>
  
  <!-- Outline -->
  <path d="M 25 50 Q 20 45 25 40 Q 28 30 40 28 Q 50 20 65 22 Q 78 18 88 25 Q 98 28 102 38 Q 105 48 100 55 Q 95 62 85 65 Q 70 70 55 68 Q 40 70 30 62 Q 22 58 25 50 Z" 
        fill="none" 
        stroke="#2eecb8" 
        stroke-width="2" 
        opacity="0.6"
        filter="url(#glow-philosophy)"/>
</svg>

